<svg xmlns="http://www.w3.org/2000/svg" width="1080" height="1350" viewBox="0 0 1080 1350">
<defs>
<filter id="shadow" x="-20%" y="-20%" width="140%" height="160%"><feDropShadow dx="0" dy="7" stdDeviation="9" flood-color="#111111" flood-opacity=".10"/></filter>
<marker id="arrow" viewBox="0 0 10 10" refX="8" refY="5" markerWidth="8" markerHeight="8" orient="auto-start-reverse"><path d="M 0 0 L 10 5 L 0 10 z" fill="#F07040"/></marker>
</defs>
<rect width="1080" height="1350" fill="#F5F5F0"/>
<text x="72" y="78" font-family="Apple SD Gothic Neo,Malgun Gothic,Arial,sans-serif" font-size="28" font-weight="800" fill="#F07040">순살차트 · SOONSAL</text>
<text x="1008" y="78" text-anchor="end" font-family="Apple SD Gothic Neo,Malgun Gothic,Arial,sans-serif" font-size="23" fill="#888888">2026-08-14</text>
<text x="72" y="160" font-family="Apple SD Gothic Neo,Malgun Gothic,Arial,sans-serif" font-size="50" font-weight="800" fill="#111111">새 폰값이 100달러 오른 이유가,</text>
<text x="72" y="222" font-family="Apple SD Gothic Neo,Malgun Gothic,Arial,sans-serif" font-size="50" font-weight="800" fill="#111111">메모리 부족임</text>
<text x="72" y="310" font-family="Apple SD Gothic Neo,Malgun Gothic,Arial,sans-serif" font-size="25" fill="#666666">메모리 부족이 소비자 가격에 닿은 경로</text>
<path d="M 540.0 508.0 C 540.0 611.5, 229.3 611.5, 229.3 707.0" fill="none" stroke="#F07040" stroke-width="4" marker-end="url(#arrow)"/>
<rect x="312.7" y="581.5" width="144" height="36" rx="18" fill="#F5F5F0"/>
<text x="384.7" y="608.5" text-anchor="middle" font-family="Apple SD Gothic Neo,Malgun Gothic,Arial,sans-serif" font-size="18" fill="#8B4B2C">완성품에 전가</text>
<path d="M 540.0 508.0 C 540.0 611.5, 540.0 611.5, 540.0 707.0" fill="none" stroke="#F07040" stroke-width="4" marker-end="url(#arrow)"/>
<rect x="468.0" y="581.5" width="144" height="36" rx="18" fill="#F5F5F0"/>
<text x="540.0" y="608.5" text-anchor="middle" font-family="Apple SD Gothic Neo,Malgun Gothic,Arial,sans-serif" font-size="18" fill="#8B4B2C">공급자 재평가</text>
<path d="M 540.0 508.0 C 540.0 611.5, 850.7 611.5, 850.7 707.0" fill="none" stroke="#F07040" stroke-width="4" marker-end="url(#arrow)"/>
<rect x="623.3" y="581.5" width="144" height="36" rx="18" fill="#F5F5F0"/>
<text x="695.3" y="608.5" text-anchor="middle" font-family="Apple SD Gothic Neo,Malgun Gothic,Arial,sans-serif" font-size="18" fill="#8B4B2C">같은 방향</text>
<path d="M 229.3 833.0 C 229.3 936.5, 540.0 936.5, 540.0 1032.0" fill="none" stroke="#F07040" stroke-width="4" stroke-dasharray="12 10" marker-end="url(#arrow)"/>
<rect x="312.7" y="906.5" width="144" height="36" rx="18" fill="#F5F5F0"/>
<text x="384.7" y="933.5" text-anchor="middle" font-family="Apple SD Gothic Neo,Malgun Gothic,Arial,sans-serif" font-size="18" fill="#8B4B2C">다음 질문</text>
<rect x="160.0" y="390.0" width="760.0" height="118" rx="24" fill="#FFFFFF" stroke="#E0DDD5" stroke-width="3" filter="url(#shadow)"/>
<text x="540.0" y="449.0" text-anchor="middle" dominant-baseline="middle" font-family="Apple SD Gothic Neo,Malgun Gothic,Arial,sans-serif" font-size="27" font-weight="700" fill="#222222">메모리 공급 부족</text>
<rect x="90.0" y="715.0" width="278.7" height="118" rx="24" fill="#FFFFFF" stroke="#E0DDD5" stroke-width="3" filter="url(#shadow)"/>
<text x="229.3" y="756.0" text-anchor="middle" dominant-baseline="middle" font-family="Apple SD Gothic Neo,Malgun Gothic,Arial,sans-serif" font-size="27" font-weight="700" fill="#222222">새 폰 전 기종 100달러</text>
<text x="229.3" y="792.0" text-anchor="middle" dominant-baseline="middle" font-family="Apple SD Gothic Neo,Malgun Gothic,Arial,sans-serif" font-size="27" font-weight="700" fill="#222222">인상</text>
<rect x="400.7" y="715.0" width="278.7" height="118" rx="24" fill="#FFFFFF" stroke="#E0DDD5" stroke-width="3" filter="url(#shadow)"/>
<text x="540.0" y="756.0" text-anchor="middle" dominant-baseline="middle" font-family="Apple SD Gothic Neo,Malgun Gothic,Arial,sans-serif" font-size="27" font-weight="700" fill="#222222">삼성전자 4.89% ·</text>
<text x="540.0" y="792.0" text-anchor="middle" dominant-baseline="middle" font-family="Apple SD Gothic Neo,Malgun Gothic,Arial,sans-serif" font-size="27" font-weight="700" fill="#222222">SK하이닉스 5.92%</text>
<rect x="711.3" y="715.0" width="278.7" height="118" rx="24" fill="#FFFFFF" stroke="#E0DDD5" stroke-width="3" filter="url(#shadow)"/>
<text x="850.7" y="774.0" text-anchor="middle" dominant-baseline="middle" font-family="Apple SD Gothic Neo,Malgun Gothic,Arial,sans-serif" font-size="27" font-weight="700" fill="#222222">CXMT, 중국 시총 1위</text>
<rect x="160.0" y="1040.0" width="760.0" height="118" rx="24" fill="#FFF4EF" stroke="#F07040" stroke-width="3" filter="url(#shadow)"/>
<text x="540.0" y="1099.0" text-anchor="middle" dominant-baseline="middle" font-family="Apple SD Gothic Neo,Malgun Gothic,Arial,sans-serif" font-size="27" font-weight="700" fill="#222222">수요가 값을 견딜지는 미확인</text>
<line x1="72" y1="1220" x2="1008" y2="1220" stroke="#E0DDD5" stroke-width="2"/>
<text x="72" y="1272" font-family="Apple SD Gothic Neo,Malgun Gothic,Arial,sans-serif" font-size="21" font-weight="700" fill="#888888">SOONSAL.COM/CHART</text>
</svg>
