<svg xmlns="http://www.w3.org/2000/svg" width="1080" height="1350" viewBox="0 0 1080 1350">
<defs>
<filter id="shadow" x="-20%" y="-20%" width="140%" height="160%"><feDropShadow dx="0" dy="7" stdDeviation="9" flood-color="#111111" flood-opacity=".10"/></filter>
<marker id="arrow" viewBox="0 0 10 10" refX="8" refY="5" markerWidth="8" markerHeight="8" orient="auto-start-reverse"><path d="M 0 0 L 10 5 L 0 10 z" fill="#F07040"/></marker>
</defs>
<rect width="1080" height="1350" fill="#F5F5F0"/>
<text x="72" y="78" font-family="Apple SD Gothic Neo,Malgun Gothic,Arial,sans-serif" font-size="28" font-weight="800" fill="#F07040">순살차트 · SOONSAL</text>
<text x="1008" y="78" text-anchor="end" font-family="Apple SD Gothic Neo,Malgun Gothic,Arial,sans-serif" font-size="23" fill="#7C756C">2026-08-14</text>
<text x="72" y="160" font-family="Apple SD Gothic Neo,Malgun Gothic,Arial,sans-serif" font-size="50" font-weight="800" fill="#111111">포켓몬 카드가 비트코인도 지수도 이겼음</text>
<text x="72" y="310" font-family="Apple SD Gothic Neo,Malgun Gothic,Arial,sans-serif" font-size="25" fill="#666666">돈이 코인에서 카드로 옮겨 앉은 자리</text>
<path d="M 309.0 508.0 C 309.0 557.3, 540.0 557.3, 540.0 598.7" fill="none" stroke="#F07040" stroke-width="4" stroke-dasharray="12 10" marker-end="url(#arrow)"/>
<rect x="352.5" y="527.3" width="144" height="36" rx="18" fill="#F5F5F0"/>
<text x="424.5" y="554.3" text-anchor="middle" font-family="Apple SD Gothic Neo,Malgun Gothic,Arial,sans-serif" font-size="18" fill="#F5A481">자금 이동</text>
<path d="M 540.0 724.7 C 540.0 774.0, 540.0 774.0, 540.0 815.3" fill="none" stroke="#F07040" stroke-width="4" marker-end="url(#arrow)"/>
<rect x="468.0" y="744.0" width="144" height="36" rx="18" fill="#F5F5F0"/>
<text x="540.0" y="771.0" text-anchor="middle" font-family="Apple SD Gothic Neo,Malgun Gothic,Arial,sans-serif" font-size="18" fill="#F5A481">거래 사상 최대</text>
<path d="M 540.0 941.3 C 540.0 990.7, 540.0 990.7, 540.0 1032.0" fill="none" stroke="#F07040" stroke-width="4" stroke-dasharray="12 10" marker-end="url(#arrow)"/>
<rect x="468.0" y="960.7" width="144" height="36" rx="18" fill="#F5F5F0"/>
<text x="540.0" y="987.7" text-anchor="middle" font-family="Apple SD Gothic Neo,Malgun Gothic,Arial,sans-serif" font-size="18" fill="#F5A481">개인 쪽 흐름</text>
<path d="M 771.0 508.0 C 771.0 774.0, 540.0 774.0, 540.0 1032.0" fill="none" stroke="#F07040" stroke-width="4" marker-end="url(#arrow)"/>
<rect x="583.5" y="744.0" width="144" height="36" rx="18" fill="#F5F5F0"/>
<text x="655.5" y="771.0" text-anchor="middle" font-family="Apple SD Gothic Neo,Malgun Gothic,Arial,sans-serif" font-size="18" fill="#F5A481">기관 쪽 흐름</text>
<rect x="160.0" y="606.7" width="760.0" height="118" rx="24" fill="#1C1917" stroke="#332E29" stroke-width="3" filter="url(#shadow)"/>
<text x="540.0" y="665.7" text-anchor="middle" dominant-baseline="middle" font-family="Apple SD Gothic Neo,Malgun Gothic,Arial,sans-serif" font-size="27" font-weight="700" fill="#F5F2EC">포켓몬 카드 3개월 29.4%</text>
<rect x="94.0" y="390.0" width="430.0" height="118" rx="24" fill="#1C1917" stroke="#332E29" stroke-width="3" filter="url(#shadow)"/>
<text x="309.0" y="449.0" text-anchor="middle" dominant-baseline="middle" font-family="Apple SD Gothic Neo,Malgun Gothic,Arial,sans-serif" font-size="27" font-weight="700" fill="#F5F2EC">비트코인 약 20% 하락</text>
<rect x="556.0" y="390.0" width="430.0" height="118" rx="24" fill="#1C1917" stroke="#332E29" stroke-width="3" filter="url(#shadow)"/>
<text x="771.0" y="449.0" text-anchor="middle" dominant-baseline="middle" font-family="Apple SD Gothic Neo,Malgun Gothic,Arial,sans-serif" font-size="27" font-weight="700" fill="#F5F2EC">기관은 토큰화 시험에 참여</text>
<rect x="160.0" y="823.3" width="760.0" height="118" rx="24" fill="#1C1917" stroke="#332E29" stroke-width="3" filter="url(#shadow)"/>
<text x="540.0" y="882.3" text-anchor="middle" dominant-baseline="middle" font-family="Apple SD Gothic Neo,Malgun Gothic,Arial,sans-serif" font-size="27" font-weight="700" fill="#F5F2EC">되팔기 거래 사상 최대</text>
<rect x="160.0" y="1040.0" width="760.0" height="118" rx="24" fill="#2A1C15" stroke="#F07040" stroke-width="3" filter="url(#shadow)"/>
<text x="540.0" y="1099.0" text-anchor="middle" dominant-baseline="middle" font-family="Apple SD Gothic Neo,Malgun Gothic,Arial,sans-serif" font-size="27" font-weight="700" fill="#F5F2EC">개인은 나가고 기관은 들어옴</text>
<line x1="72" y1="1220" x2="1008" y2="1220" stroke="#332E29" stroke-width="2"/>
<text x="72" y="1272" font-family="Apple SD Gothic Neo,Malgun Gothic,Arial,sans-serif" font-size="21" font-weight="700" fill="#7C756C">SOONSAL.COM/CHART</text>
</svg>
