<svg xmlns="http://www.w3.org/2000/svg" width="1080" height="1350" viewBox="0 0 1080 1350">
<defs>
<filter id="shadow" x="-20%" y="-20%" width="140%" height="160%"><feDropShadow dx="0" dy="7" stdDeviation="9" flood-color="#111111" flood-opacity=".10"/></filter>
<marker id="arrow" viewBox="0 0 10 10" refX="8" refY="5" markerWidth="8" markerHeight="8" orient="auto-start-reverse"><path d="M 0 0 L 10 5 L 0 10 z" fill="#F07040"/></marker>
</defs>
<rect width="1080" height="1350" fill="#F5F5F0"/>
<text x="72" y="78" font-family="Apple SD Gothic Neo,Malgun Gothic,Arial,sans-serif" font-size="28" font-weight="800" fill="#F07040">순살차트 · SOONSAL</text>
<text x="1008" y="78" text-anchor="end" font-family="Apple SD Gothic Neo,Malgun Gothic,Arial,sans-serif" font-size="23" fill="#888888">2026-08-12</text>
<text x="72" y="160" font-family="Apple SD Gothic Neo,Malgun Gothic,Arial,sans-serif" font-size="50" font-weight="800" fill="#111111">Apple 마진, 메모리 업체 쪽으로</text>
<text x="72" y="222" font-family="Apple SD Gothic Neo,Malgun Gothic,Arial,sans-serif" font-size="50" font-weight="800" fill="#111111">이동하는 중</text>
<text x="72" y="310" font-family="Apple SD Gothic Neo,Malgun Gothic,Arial,sans-serif" font-size="25" fill="#666666">메모리 가격이 Apple과 한국 업체의 마진을 가르는 경로</text>
<path d="M 309.0 508.0 C 309.0 557.3, 540.0 557.3, 540.0 598.7" fill="none" stroke="#F07040" stroke-width="4" marker-end="url(#arrow)"/>
<rect x="352.5" y="527.3" width="144" height="36" rx="18" fill="#F5F5F0"/>
<text x="424.5" y="554.3" text-anchor="middle" font-family="Apple SD Gothic Neo,Malgun Gothic,Arial,sans-serif" font-size="18" fill="#8B4B2C">원가 반영</text>
<path d="M 540.0 724.7 C 540.0 774.0, 540.0 774.0, 540.0 815.3" fill="none" stroke="#F07040" stroke-width="4" stroke-dasharray="12 10" marker-end="url(#arrow)"/>
<rect x="468.0" y="744.0" width="144" height="36" rx="18" fill="#F5F5F0"/>
<text x="540.0" y="771.0" text-anchor="middle" font-family="Apple SD Gothic Neo,Malgun Gothic,Arial,sans-serif" font-size="18" fill="#8B4B2C">마진 압박</text>
<path d="M 771.0 508.0 C 771.0 774.0, 540.0 774.0, 540.0 1032.0" fill="none" stroke="#F07040" stroke-width="4" stroke-dasharray="12 10" marker-end="url(#arrow)"/>
<rect x="583.5" y="744.0" width="144" height="36" rx="18" fill="#F5F5F0"/>
<text x="655.5" y="771.0" text-anchor="middle" font-family="Apple SD Gothic Neo,Malgun Gothic,Arial,sans-serif" font-size="18" fill="#8B4B2C">대체 공급 제한</text>
<path d="M 540.0 941.3 C 540.0 990.7, 540.0 990.7, 540.0 1032.0" fill="none" stroke="#F07040" stroke-width="4" stroke-dasharray="12 10" marker-end="url(#arrow)"/>
<rect x="468.0" y="960.7" width="144" height="36" rx="18" fill="#F5F5F0"/>
<text x="540.0" y="987.7" text-anchor="middle" font-family="Apple SD Gothic Neo,Malgun Gothic,Arial,sans-serif" font-size="18" fill="#8B4B2C">마진 이동</text>
<rect x="94.0" y="390.0" width="430.0" height="118" rx="24" fill="#FFFFFF" stroke="#E0DDD5" stroke-width="3" filter="url(#shadow)"/>
<text x="309.0" y="449.0" text-anchor="middle" dominant-baseline="middle" font-family="Apple SD Gothic Neo,Malgun Gothic,Arial,sans-serif" font-size="27" font-weight="700" fill="#222222">메모리 가격 상승</text>
<rect x="556.0" y="390.0" width="430.0" height="118" rx="24" fill="#FFFFFF" stroke="#E0DDD5" stroke-width="3" filter="url(#shadow)"/>
<text x="771.0" y="449.0" text-anchor="middle" dominant-baseline="middle" font-family="Apple SD Gothic Neo,Malgun Gothic,Arial,sans-serif" font-size="27" font-weight="700" fill="#222222">CXMT 대체 조달 제약</text>
<rect x="160.0" y="606.7" width="760.0" height="118" rx="24" fill="#FFFFFF" stroke="#E0DDD5" stroke-width="3" filter="url(#shadow)"/>
<text x="540.0" y="647.7" text-anchor="middle" dominant-baseline="middle" font-family="Apple SD Gothic Neo,Malgun Gothic,Arial,sans-serif" font-size="27" font-weight="700" fill="#222222">256GB 아이폰 18 Pro 원가 38%</text>
<text x="540.0" y="683.7" text-anchor="middle" dominant-baseline="middle" font-family="Apple SD Gothic Neo,Malgun Gothic,Arial,sans-serif" font-size="27" font-weight="700" fill="#222222">상승</text>
<rect x="160.0" y="823.3" width="760.0" height="118" rx="24" fill="#FFF4EF" stroke="#F07040" stroke-width="3" filter="url(#shadow)"/>
<text x="540.0" y="882.3" text-anchor="middle" dominant-baseline="middle" font-family="Apple SD Gothic Neo,Malgun Gothic,Arial,sans-serif" font-size="27" font-weight="700" fill="#222222">Apple 제품 마진 압박</text>
<rect x="160.0" y="1040.0" width="760.0" height="118" rx="24" fill="#FFFFFF" stroke="#E0DDD5" stroke-width="3" filter="url(#shadow)"/>
<text x="540.0" y="1099.0" text-anchor="middle" dominant-baseline="middle" font-family="Apple SD Gothic Neo,Malgun Gothic,Arial,sans-serif" font-size="27" font-weight="700" fill="#222222">한국 메모리 가격 협상력</text>
<line x1="72" y1="1220" x2="1008" y2="1220" stroke="#E0DDD5" stroke-width="2"/>
<text x="72" y="1272" font-family="Apple SD Gothic Neo,Malgun Gothic,Arial,sans-serif" font-size="21" font-weight="700" fill="#888888">SOONSAL.COM/MORNING</text>
</svg>
